<?xml version="1.0" encoding="utf-8"?>
<!-- Generator: Adobe Illustrator 16.0.4, SVG Export Plug-In . SVG Version: 6.00 Build 0)  -->
<!DOCTYPE svg PUBLIC "-//W3C//DTD SVG 1.1//EN" "http://www.w3.org/Graphics/SVG/1.1/DTD/svg11.dtd">
<svg version="1.1" xmlns="http://www.w3.org/2000/svg" xmlns:xlink="http://www.w3.org/1999/xlink" x="0px" y="0px" width="2048px"
	 height="789.079px" viewBox="0 0 2048 789.079" enable-background="new 0 0 2048 789.079" xml:space="preserve">
<g id="Layer_1">
	<path fill="#1B1464" d="M1922.805,268.163c7.252-7.255,20.054-7.149,28.013,0.811c7.959,7.961,8.025,20.721,0.77,27.975
		l-73.894,73.977c-2.269,2.265,0.134,4.667,0.134,4.667l-31.228-31.228l2.268-2.266L1922.805,268.163z"/>
	<path fill="#1B1464" d="M1977.001,281.223c7.687-7.686,20.868-7.96,28.827,0.001c7.958,7.958,7.646,21.097-0.043,28.784
		l-94.328,94.408c-2.403,2.405,0,4.807,0,4.807l-33.63-33.63c0,0,2.402,2.403,4.806,0L1977.001,281.223z"/>
	<path fill="#1B1464" d="M1996.219,329.266c7.686-7.687,20.862-7.961,28.826,0c7.957,7.959,7.644,21.098-0.043,28.785
		l-79.916,79.996c-2.402,2.403,0,4.804,0,4.804l-33.629-33.627c0,0,2.401,2.402,4.803,0L1996.219,329.266z"/>
	<path fill="#1B1464" d="M1998.348,394.394c7.017-7.014,19.608-6.7,27.567,1.259c7.958,7.961,8.234,20.51,1.218,27.526
		l-48.628,48.707l-2.19,2.191l-31.229-31.227c0,0,2.404,2.404,4.596,0.211L1998.348,394.394z"/>
	<path fill="#1B1464" d="M1757,471.226v-115.85c0-10.871,8.418-20.382,19.677-20.38c11.254-0.002,20.133,9.509,20.133,20.38
		l0.543,116.805"/>
	<path fill="#1B1464" d="M1793.275,397.576c-25.137,17.099-37.424,32.713-37.424,65.562c0,52.554,42.634,95.16,95.188,95.16
		c23.465,0,48-7.249,65.211-24.216l0,0l61.147-61.148L1847.6,343.222L1793.275,397.576z"/>
</g>
<g id="Layer_2">
	<g>
		<path fill="#1B1464" d="M119.195,280.191c30.265,0,54.003,6.928,71.211,20.777c17.208,13.854,25.812,32.983,25.812,57.39
			c0,13.427-3.601,25.08-10.8,34.965c-7.203,9.885-17.758,17.879-31.67,23.981c15.744,4.639,27.062,12.356,33.958,23.157
			c6.894,10.801,10.343,24.196,10.343,40.182v13.547c0,5.857,1.158,10.404,3.478,13.639c2.317,3.234,6.162,5.156,11.534,5.765
			l6.59,0.916v32.218h-27.643c-17.454,0-29.719-4.695-36.795-14.096c-7.08-9.396-10.618-21.537-10.618-36.428V481.01
			c0-12.935-3.45-23.095-10.343-30.479c-6.897-7.383-16.63-11.258-29.199-11.625H81.301v70.294l28.558,5.492v32.035H-0.528v-32.035
			l28.375-5.492V317.902l-28.375-5.491v-32.22h28.375H119.195z M81.301,397.717h36.979c14.888,0,26.055-3.173,33.5-9.52
			c7.442-6.343,11.167-15.497,11.167-27.458c0-11.959-3.693-21.51-11.076-28.649c-7.385-7.139-18.278-10.709-32.676-10.709H81.301
			V397.717z"/>
		<path fill="#1B1464" d="M353.332,550.573c-28.558,0-51.381-9.153-68.466-27.458c-17.087-18.307-25.628-41.555-25.628-69.747
			v-7.323c0-29.41,8.083-53.637,24.256-72.676c16.169-19.039,37.862-28.495,65.079-28.374c26.727,0,47.473,8.054,62.241,24.164
			c14.764,16.109,22.15,37.894,22.15,65.353v29.107H314.705l-0.367,1.099c0.976,13.06,5.338,23.797,13.089,32.217
			c7.749,8.422,18.275,12.634,31.579,12.634c11.835,0,21.661-1.192,29.473-3.572c7.809-2.378,16.353-6.132,25.629-11.257
			l14.461,32.951c-8.177,6.47-18.763,11.898-31.761,16.292C383.811,548.376,369.317,550.573,353.332,550.573z M348.572,386.184
			c-9.886,0-17.697,3.785-23.432,11.35c-5.738,7.568-9.276,17.514-10.618,29.839l0.549,0.915h65.537v-4.759
			c0-11.35-2.654-20.412-7.963-27.185C367.335,389.571,359.31,386.184,348.572,386.184z"/>
		<path fill="#1B1464" d="M584.356,546.728c-1.465-3.294-2.746-6.682-3.844-10.16c-1.099-3.477-1.954-6.983-2.563-10.525
			c-6.347,7.323-14.067,13.244-23.157,17.757c-9.093,4.515-19.496,6.773-31.212,6.773c-19.404,0-34.813-5.277-46.223-15.834
			c-11.414-10.556-17.117-24.925-17.117-43.111c0-18.55,7.443-32.888,22.334-43.019c14.888-10.129,36.733-15.194,65.537-15.194
			h27.276v-19.405c0-9.519-2.747-16.902-8.238-22.15c-5.492-5.246-13.609-7.873-24.347-7.873c-6.104,0-11.533,0.704-16.292,2.106
			c-4.76,1.404-8.605,3.083-11.533,5.034l-3.479,21.235h-40.273l0.183-43.935c9.763-6.589,20.961-12.142,33.592-16.658
			c12.632-4.514,26.39-6.773,41.28-6.773c24.531,0,44.453,6.013,59.771,18.032c15.314,12.021,22.974,29.138,22.974,51.348v81.829
			c0,3.052,0.029,5.92,0.092,8.604c0.06,2.686,0.274,5.248,0.641,7.688l16.292,2.196v32.035H584.356z M538.041,511.032
			c8.055,0,15.377-1.739,21.967-5.217c6.591-3.478,11.716-7.841,15.378-13.089v-30.205h-27.276c-11.35,0-19.954,2.653-25.812,7.963
			c-5.858,5.309-8.788,11.688-8.788,19.13c0,6.713,2.167,11.962,6.5,15.743C524.339,509.142,530.352,511.032,538.041,511.032z"/>
		<path fill="#1B1464" d="M757.166,509.569c9.52,0,17.146-2.776,22.883-8.33c5.735-5.554,8.604-12.967,8.604-22.242h48.329
			l0.549,1.098c0.486,20.018-7.019,36.767-22.517,50.251c-15.5,13.485-34.782,20.228-57.848,20.228
			c-29.536,0-52.296-9.335-68.282-28.007c-15.989-18.673-23.981-42.654-23.981-71.944v-5.492c0-29.166,8.207-53.148,24.623-71.943
			c16.412-18.792,39.815-28.191,70.204-28.191c15.986,0,30.326,2.379,43.02,7.139c12.691,4.759,23.249,11.473,31.67,20.136
			l0.732,52.906h-43.386l-8.787-30.937c-2.686-2.318-5.981-4.24-9.885-5.768c-3.908-1.524-8.361-2.288-13.363-2.288
			c-15.134,0-25.812,5.492-32.036,16.476c-6.224,10.984-9.336,25.143-9.336,42.47v5.492c0,17.697,2.866,31.944,8.604,42.745
			C732.696,504.167,742.765,509.569,757.166,509.569z"/>
		<path fill="#1B1464" d="M858.766,514.693l25.812-5.492V298.863l-28.558-5.491v-32.219h81.829v112.766
			c6.224-9.152,13.85-16.261,22.883-21.327c9.03-5.063,19.038-7.597,30.021-7.597c20.747,0,37.007,6.864,48.787,20.594
			c11.776,13.73,17.665,34.937,17.665,63.615v79.997l25.629,5.492v32.035H980.686v-32.035l23.065-5.492v-80.363
			c0-15.377-2.717-26.27-8.146-32.676c-5.433-6.408-13.519-9.611-24.257-9.611c-7.445,0-13.943,1.344-19.495,4.027
			c-5.555,2.686-10.224,6.47-14.004,11.35v107.273l23.065,5.492v32.035H858.766V514.693z"/>
		<path fill="#1B1464" d="M1338.938,415.474c0,38.81-11.137,71.027-33.409,96.656s-51.105,38.442-86.496,38.442
			c-34.415,0-62.364-12.813-83.843-38.442c-21.48-25.629-32.218-57.847-32.218-96.656v-3.844c0-38.686,10.737-70.905,32.218-96.657
			c21.479-25.75,49.428-38.626,83.843-38.626c35.391,0,64.224,12.876,86.496,38.626c22.272,25.752,33.409,57.971,33.409,96.657
			V415.474z M1302.876,411.264c0-30.998-7.415-56.292-22.244-75.879c-14.827-19.589-35.362-29.382-61.6-29.382
			c-25.144,0-44.758,9.826-58.854,29.473c-14.095,19.65-21.144,44.913-21.144,75.788v4.21c0,31.244,7.049,56.658,21.144,76.245
			c14.097,19.587,33.711,29.381,58.854,29.381c26.604,0,47.229-9.761,61.875-29.29c14.645-19.523,21.969-44.97,21.969-76.336
			V411.264z"/>
		<path fill="#1B1464" d="M1511.017,517.439c-6.224,10.617-14.25,18.795-24.072,24.531c-9.827,5.734-21.145,8.603-33.958,8.603
			c-21.481,0-38.26-6.894-50.343-20.685c-12.082-13.791-18.122-35.269-18.122-64.438v-88.419l-22.699-5.126v-23.249h22.699h36.062
			v117.16c0,21.115,3.112,35.637,9.336,43.568c6.224,7.934,15.928,11.898,29.107,11.898c12.814,0,23.401-2.591,31.761-7.779
			c8.357-5.187,14.673-12.54,18.947-22.06V377.031l-26.545-5.126v-23.249h26.545h36.063v169.881l22.699,5.126v23.064h-55.102
			L1511.017,517.439z"/>
		<path fill="#1B1464" d="M1660.029,300.877v47.779h37.527v26.727h-37.527v120.271c0,9.277,1.922,15.807,5.767,19.588
			c3.844,3.785,8.938,5.675,15.286,5.675c3.171,0,6.742-0.273,10.709-0.824c3.963-0.548,7.291-1.126,9.977-1.738l4.943,24.713
			c-3.419,2.197-8.422,3.996-15.013,5.401c-6.59,1.402-13.18,2.104-19.771,2.104c-14.645,0-26.3-4.421-34.966-13.271
			c-8.665-8.848-12.996-22.729-12.996-41.648V375.383h-31.303v-26.727h31.303v-47.779H1660.029z"/>
	</g>
</g>
</svg>
