<?xml version="1.0" encoding="utf-8"?>
<!-- Generator: Adobe Illustrator 16.0.4, SVG Export Plug-In . SVG Version: 6.00 Build 0)  -->
<!DOCTYPE svg PUBLIC "-//W3C//DTD SVG 1.1//EN" "http://www.w3.org/Graphics/SVG/1.1/DTD/svg11.dtd">
<svg version="1.1" xmlns="http://www.w3.org/2000/svg" xmlns:xlink="http://www.w3.org/1999/xlink" x="0px" y="0px" width="2048px"
	 height="2048px" viewBox="0 0 2048 2048" enable-background="new 0 0 2048 2048" xml:space="preserve">
<g id="Layer_1">
	<path fill="#1B1464" d="M1224.479,45.888c49.75-49.762,137.562-49.043,192.151,5.557c54.591,54.604,55.049,142.125,5.277,191.883
		L915.063,750.745c-15.557,15.533,0.917,32.015,0.917,32.015L701.788,568.56l15.557-15.542L1224.479,45.888z"/>
	<path fill="#1B1464" d="M1596.225,135.469c52.728-52.718,143.134-54.601,197.731,0.007c54.583,54.59,52.44,144.708-0.295,197.432
		l-647.015,647.554c-16.478,16.494,0,32.968,0,32.968L915.98,782.759c0,0,16.48,16.481,32.962,0L1596.225,135.469z"/>
	<path fill="#1B1464" d="M1728.045,464.997c52.713-52.728,143.1-54.601,197.717,0c54.582,54.593,52.428,144.712-0.288,197.443
		l-548.15,548.698c-16.48,16.48,0,32.949,0,32.949l-230.677-230.656c0,0,16.479,16.475,32.954,0L1728.045,464.997z"/>
	<path fill="#1B1464" d="M1742.652,911.718c48.121-48.111,134.488-45.959,189.077,8.637c54.591,54.601,56.479,140.68,8.356,188.806
		l-333.547,334.083l-15.023,15.029l-214.192-214.187c0,0,16.482,16.49,31.511,1.444L1742.652,911.718z"/>
	<path fill="#1B1464" d="M73,1445V650.951c0-74.568,61.424-139.805,138.647-139.793c77.194-0.011,139.932,65.225,139.932,139.793
		l0.963,800.891"/>
	<path fill="#1B1464" d="M329.177,940.401c-172.414,117.287-256.694,224.387-256.694,449.697
		c0,360.469,292.429,652.712,652.902,652.712c160.951,0,329.236-49.716,447.286-166.096l0,0l419.417-419.425L701.793,567.577
		L329.177,940.401z"/>
</g>
<g id="Layer_2">
</g>
</svg>
