<?xml version="1.0" encoding="utf-8"?>
<!-- Generator: Adobe Illustrator 21.0.0, SVG Export Plug-In . SVG Version: 6.00 Build 0)  -->
<svg version="1.1" id="Layer_1" xmlns="http://www.w3.org/2000/svg" xmlns:xlink="http://www.w3.org/1999/xlink" x="0px" y="0px"
	 viewBox="0 0 1660 1012" style="enable-background:new 0 0 1660 1012;" xml:space="preserve">
<style type="text/css">
	.st0{display:none;}
	.st1{display:inline;fill:none;stroke:#EDEDED;stroke-width:0.5;stroke-miterlimit:10;}
	.st2{display:inline;fill:none;stroke:#BDBDBD;stroke-miterlimit:10;}
	.st3{display:inline;}
	.st4{display:none;opacity:0.48;}
	.st5{fill:none;}
	.st6{fill:#F44336;}
	.st7{fill:none;stroke:#F44336;stroke-width:11;stroke-miterlimit:10;}
</style>
<g class="st0">
	<rect x="835" y="597" class="st1" width="25" height="25"/>
	<rect x="760" y="597" class="st1" width="25" height="25"/>
	<rect x="810" y="597" class="st1" width="25" height="25"/>
	<rect x="785" y="597" class="st1" width="25" height="25"/>
	<rect x="710" y="572" class="st1" width="25" height="25"/>
	<rect x="710" y="597" class="st1" width="25" height="25"/>
	<rect x="735" y="597" class="st1" width="25" height="25"/>
	<rect x="860" y="597" class="st1" width="25" height="25"/>
	<rect x="935" y="547" class="st1" width="25" height="25"/>
	<rect x="710" y="547" class="st1" width="25" height="25"/>
	<rect x="935" y="572" class="st1" width="25" height="25"/>
	<rect x="935" y="522" class="st1" width="25" height="25"/>
	<rect x="885" y="597" class="st1" width="25" height="25"/>
	<rect x="935" y="597" class="st1" width="25" height="25"/>
	<rect x="935" y="497" class="st1" width="25" height="25"/>
	<rect x="910" y="597" class="st1" width="25" height="25"/>
	<rect x="835" y="372" class="st1" width="25" height="25"/>
	<rect x="810" y="372" class="st1" width="25" height="25"/>
	<rect x="785" y="372" class="st1" width="25" height="25"/>
	<rect x="885" y="372" class="st1" width="25" height="25"/>
	<rect x="910" y="372" class="st1" width="25" height="25"/>
	<rect x="760" y="372" class="st1" width="25" height="25"/>
	<rect x="860" y="372" class="st1" width="25" height="25"/>
	<rect x="710" y="422" class="st1" width="25" height="25"/>
	<rect x="710" y="447" class="st1" width="25" height="25"/>
	<rect x="710" y="472" class="st1" width="25" height="25"/>
	<rect x="710" y="497" class="st1" width="25" height="25"/>
	<rect x="710" y="522" class="st1" width="25" height="25"/>
	<rect x="735" y="372" class="st1" width="25" height="25"/>
	<rect x="710" y="372" class="st1" width="25" height="25"/>
	<rect x="710" y="397" class="st1" width="25" height="25"/>
	<rect x="935" y="397" class="st1" width="25" height="25"/>
	<rect x="685" y="522" class="st1" width="25" height="25"/>
	<rect x="685" y="547" class="st1" width="25" height="25"/>
	<rect x="685" y="497" class="st1" width="25" height="25"/>
	<rect x="685" y="422" class="st1" width="25" height="25"/>
	<rect x="685" y="397" class="st1" width="25" height="25"/>
	<rect x="685" y="447" class="st1" width="25" height="25"/>
	<rect x="685" y="472" class="st1" width="25" height="25"/>
	<rect x="685" y="572" class="st1" width="25" height="25"/>
	<rect x="785" y="622" class="st1" width="25" height="25"/>
	<rect x="810" y="622" class="st1" width="25" height="25"/>
	<rect x="760" y="622" class="st1" width="25" height="25"/>
	<rect x="735" y="622" class="st1" width="25" height="25"/>
	<rect x="685" y="622" class="st1" width="25" height="25"/>
	<rect x="710" y="622" class="st1" width="25" height="25"/>
	<rect x="685" y="597" class="st1" width="25" height="25"/>
	<rect x="685" y="372" class="st1" width="25" height="25"/>
	<rect x="935" y="347" class="st1" width="25" height="25"/>
	<rect x="885" y="347" class="st1" width="25" height="25"/>
	<rect x="860" y="347" class="st1" width="25" height="25"/>
	<rect x="935" y="372" class="st1" width="25" height="25"/>
	<rect x="910" y="397" class="st1" width="25" height="25"/>
	<rect x="935" y="447" class="st1" width="25" height="25"/>
	<rect x="935" y="422" class="st1" width="25" height="25"/>
	<rect x="685" y="347" class="st1" width="25" height="25"/>
	<rect x="710" y="347" class="st1" width="25" height="25"/>
	<rect x="935" y="472" class="st1" width="25" height="25"/>
	<rect x="735" y="347" class="st1" width="25" height="25"/>
	<rect x="835" y="347" class="st1" width="25" height="25"/>
	<rect x="810" y="347" class="st1" width="25" height="25"/>
	<rect x="785" y="347" class="st1" width="25" height="25"/>
	<rect x="760" y="347" class="st1" width="25" height="25"/>
	<rect x="860" y="422" class="st1" width="25" height="25"/>
	<rect x="760" y="422" class="st1" width="25" height="25"/>
	<rect x="760" y="472" class="st1" width="25" height="25"/>
	<rect x="760" y="447" class="st1" width="25" height="25"/>
	<rect x="785" y="422" class="st1" width="25" height="25"/>
	<rect x="835" y="622" class="st1" width="25" height="25"/>
	<rect x="835" y="422" class="st1" width="25" height="25"/>
	<rect x="860" y="447" class="st1" width="25" height="25"/>
	<rect x="810" y="422" class="st1" width="25" height="25"/>
	<rect x="835" y="547" class="st1" width="25" height="25"/>
	<rect x="885" y="547" class="st1" width="25" height="25"/>
	<rect x="860" y="547" class="st1" width="25" height="25"/>
	<rect x="810" y="547" class="st1" width="25" height="25"/>
	<rect x="760" y="522" class="st1" width="25" height="25"/>
	<rect x="760" y="547" class="st1" width="25" height="25"/>
	<rect x="785" y="547" class="st1" width="25" height="25"/>
	<rect x="760" y="497" class="st1" width="25" height="25"/>
	<rect x="785" y="447" class="st1" width="25" height="25"/>
	<rect x="810" y="447" class="st1" width="25" height="25"/>
	<rect x="835" y="472" class="st1" width="25" height="25"/>
	<rect x="835" y="447" class="st1" width="25" height="25"/>
	<rect x="860" y="472" class="st1" width="25" height="25"/>
	<rect x="810" y="497" class="st1" width="25" height="25"/>
	<rect x="835" y="497" class="st1" width="25" height="25"/>
	<rect x="810" y="472" class="st1" width="25" height="25"/>
	<rect x="860" y="522" class="st1" width="25" height="25"/>
	<rect x="835" y="522" class="st1" width="25" height="25"/>
	<rect x="860" y="497" class="st1" width="25" height="25"/>
	<rect x="785" y="472" class="st1" width="25" height="25"/>
	<rect x="785" y="497" class="st1" width="25" height="25"/>
	<rect x="785" y="522" class="st1" width="25" height="25"/>
	<rect x="810" y="522" class="st1" width="25" height="25"/>
	<rect x="910" y="422" class="st1" width="25" height="25"/>
	<rect x="810" y="572" class="st1" width="25" height="25"/>
	<rect x="785" y="572" class="st1" width="25" height="25"/>
	<rect x="835" y="572" class="st1" width="25" height="25"/>
	<rect x="760" y="572" class="st1" width="25" height="25"/>
	<rect x="735" y="547" class="st1" width="25" height="25"/>
	<rect x="735" y="572" class="st1" width="25" height="25"/>
	<rect x="860" y="572" class="st1" width="25" height="25"/>
	<rect x="910" y="547" class="st1" width="25" height="25"/>
	<rect x="910" y="497" class="st1" width="25" height="25"/>
	<rect x="910" y="472" class="st1" width="25" height="25"/>
	<rect x="885" y="572" class="st1" width="25" height="25"/>
	<rect x="910" y="447" class="st1" width="25" height="25"/>
	<rect x="910" y="572" class="st1" width="25" height="25"/>
	<rect x="735" y="522" class="st1" width="25" height="25"/>
	<rect x="910" y="522" class="st1" width="25" height="25"/>
	<rect x="885" y="472" class="st1" width="25" height="25"/>
	<rect x="735" y="497" class="st1" width="25" height="25"/>
	<rect x="860" y="397" class="st1" width="25" height="25"/>
	<rect x="885" y="422" class="st1" width="25" height="25"/>
	<rect x="885" y="447" class="st1" width="25" height="25"/>
	<rect x="885" y="497" class="st1" width="25" height="25"/>
	<rect x="885" y="522" class="st1" width="25" height="25"/>
	<rect x="835" y="397" class="st1" width="25" height="25"/>
	<rect x="885" y="397" class="st1" width="25" height="25"/>
	<rect x="735" y="447" class="st1" width="25" height="25"/>
	<rect x="735" y="472" class="st1" width="25" height="25"/>
	<rect x="735" y="422" class="st1" width="25" height="25"/>
	<rect x="760" y="397" class="st1" width="25" height="25"/>
	<rect x="785" y="397" class="st1" width="25" height="25"/>
	<rect x="735" y="397" class="st1" width="25" height="25"/>
	<rect x="810" y="397" class="st1" width="25" height="25"/>
	<rect x="910" y="347" class="st1" width="25" height="25"/>
	<rect x="635" y="372" class="st1" width="25" height="25"/>
	<rect x="635" y="397" class="st1" width="25" height="25"/>
	<rect x="635" y="347" class="st1" width="25" height="25"/>
	<rect x="635" y="422" class="st1" width="25" height="25"/>
	<rect x="635" y="297" class="st1" width="25" height="25"/>
	<rect x="660" y="297" class="st1" width="25" height="25"/>
	<rect x="635" y="447" class="st1" width="25" height="25"/>
	<rect x="635" y="322" class="st1" width="25" height="25"/>
	<rect x="635" y="572" class="st1" width="25" height="25"/>
	<rect x="685" y="297" class="st1" width="25" height="25"/>
	<rect x="635" y="597" class="st1" width="25" height="25"/>
	<rect x="635" y="472" class="st1" width="25" height="25"/>
	<rect x="635" y="622" class="st1" width="25" height="25"/>
	<rect x="635" y="497" class="st1" width="25" height="25"/>
	<rect x="635" y="547" class="st1" width="25" height="25"/>
	<rect x="635" y="522" class="st1" width="25" height="25"/>
	<rect x="885" y="297" class="st1" width="25" height="25"/>
	<rect x="960" y="297" class="st1" width="25" height="25"/>
	<rect x="935" y="297" class="st1" width="25" height="25"/>
	<rect x="985" y="297" class="st1" width="25" height="25"/>
	<rect x="985" y="322" class="st1" width="25" height="25"/>
	<rect x="985" y="372" class="st1" width="25" height="25"/>
	<rect x="985" y="347" class="st1" width="25" height="25"/>
	<rect x="710" y="297" class="st1" width="25" height="25"/>
	<rect x="910" y="297" class="st1" width="25" height="25"/>
	<rect x="760" y="297" class="st1" width="25" height="25"/>
	<rect x="735" y="297" class="st1" width="25" height="25"/>
	<rect x="985" y="397" class="st1" width="25" height="25"/>
	<rect x="860" y="297" class="st1" width="25" height="25"/>
	<rect x="810" y="297" class="st1" width="25" height="25"/>
	<rect x="635" y="647" class="st1" width="25" height="25"/>
	<rect x="835" y="297" class="st1" width="25" height="25"/>
	<rect x="785" y="297" class="st1" width="25" height="25"/>
	<rect x="1010" y="522" class="st1" width="25" height="25"/>
	<rect x="1010" y="547" class="st1" width="25" height="25"/>
	<rect x="1010" y="497" class="st1" width="25" height="25"/>
	<rect x="1010" y="597" class="st1" width="25" height="25"/>
	<rect x="1010" y="622" class="st1" width="25" height="25"/>
	<rect x="1010" y="472" class="st1" width="25" height="25"/>
	<rect x="1010" y="572" class="st1" width="25" height="25"/>
	<rect x="1010" y="647" class="st1" width="25" height="25"/>
	<rect x="1010" y="347" class="st1" width="25" height="25"/>
	<rect x="1010" y="322" class="st1" width="25" height="25"/>
	<rect x="1010" y="297" class="st1" width="25" height="25"/>
	<rect x="1010" y="397" class="st1" width="25" height="25"/>
	<rect x="1010" y="422" class="st1" width="25" height="25"/>
	<rect x="1010" y="372" class="st1" width="25" height="25"/>
	<rect x="1010" y="447" class="st1" width="25" height="25"/>
	<rect x="910" y="672" class="st1" width="25" height="25"/>
	<rect x="810" y="672" class="st1" width="25" height="25"/>
	<rect x="735" y="672" class="st1" width="25" height="25"/>
	<rect x="1010" y="672" class="st1" width="25" height="25"/>
	<rect x="760" y="672" class="st1" width="25" height="25"/>
	<rect x="710" y="672" class="st1" width="25" height="25"/>
	<rect x="660" y="672" class="st1" width="25" height="25"/>
	<rect x="685" y="672" class="st1" width="25" height="25"/>
	<rect x="785" y="672" class="st1" width="25" height="25"/>
	<rect x="960" y="672" class="st1" width="25" height="25"/>
	<rect x="835" y="672" class="st1" width="25" height="25"/>
	<rect x="985" y="672" class="st1" width="25" height="25"/>
	<rect x="935" y="672" class="st1" width="25" height="25"/>
	<rect x="860" y="672" class="st1" width="25" height="25"/>
	<rect x="885" y="672" class="st1" width="25" height="25"/>
	<rect x="635" y="672" class="st1" width="25" height="25"/>
	<rect x="785" y="322" class="st1" width="25" height="25"/>
	<rect x="860" y="322" class="st1" width="25" height="25"/>
	<rect x="835" y="322" class="st1" width="25" height="25"/>
	<rect x="810" y="322" class="st1" width="25" height="25"/>
	<rect x="910" y="322" class="st1" width="25" height="25"/>
	<rect x="935" y="322" class="st1" width="25" height="25"/>
	<rect x="885" y="322" class="st1" width="25" height="25"/>
	<rect x="860" y="622" class="st1" width="25" height="25"/>
	<rect x="660" y="322" class="st1" width="25" height="25"/>
	<rect x="960" y="322" class="st1" width="25" height="25"/>
	<rect x="760" y="322" class="st1" width="25" height="25"/>
	<rect x="660" y="372" class="st1" width="25" height="25"/>
	<rect x="660" y="347" class="st1" width="25" height="25"/>
	<rect x="685" y="322" class="st1" width="25" height="25"/>
	<rect x="735" y="322" class="st1" width="25" height="25"/>
	<rect x="710" y="322" class="st1" width="25" height="25"/>
	<rect x="885" y="622" class="st1" width="25" height="25"/>
	<rect x="960" y="547" class="st1" width="25" height="25"/>
	<rect x="960" y="572" class="st1" width="25" height="25"/>
	<rect x="960" y="622" class="st1" width="25" height="25"/>
	<rect x="960" y="347" class="st1" width="25" height="25"/>
	<rect x="660" y="397" class="st1" width="25" height="25"/>
	<rect x="910" y="622" class="st1" width="25" height="25"/>
	<rect x="935" y="622" class="st1" width="25" height="25"/>
	<rect x="960" y="597" class="st1" width="25" height="25"/>
	<rect x="960" y="422" class="st1" width="25" height="25"/>
	<rect x="960" y="397" class="st1" width="25" height="25"/>
	<rect x="960" y="372" class="st1" width="25" height="25"/>
	<rect x="960" y="522" class="st1" width="25" height="25"/>
	<rect x="960" y="497" class="st1" width="25" height="25"/>
	<rect x="960" y="447" class="st1" width="25" height="25"/>
	<rect x="960" y="472" class="st1" width="25" height="25"/>
	<rect x="985" y="447" class="st1" width="25" height="25"/>
	<rect x="660" y="422" class="st1" width="25" height="25"/>
	<rect x="935" y="647" class="st1" width="25" height="25"/>
	<rect x="835" y="647" class="st1" width="25" height="25"/>
	<rect x="985" y="622" class="st1" width="25" height="25"/>
	<rect x="860" y="647" class="st1" width="25" height="25"/>
	<rect x="885" y="647" class="st1" width="25" height="25"/>
	<rect x="910" y="647" class="st1" width="25" height="25"/>
	<rect x="985" y="647" class="st1" width="25" height="25"/>
	<rect x="985" y="472" class="st1" width="25" height="25"/>
	<rect x="985" y="422" class="st1" width="25" height="25"/>
	<rect x="985" y="497" class="st1" width="25" height="25"/>
	<rect x="985" y="597" class="st1" width="25" height="25"/>
	<rect x="985" y="572" class="st1" width="25" height="25"/>
	<rect x="985" y="547" class="st1" width="25" height="25"/>
	<rect x="985" y="522" class="st1" width="25" height="25"/>
	<rect x="960" y="647" class="st1" width="25" height="25"/>
	<rect x="660" y="547" class="st1" width="25" height="25"/>
	<rect x="660" y="572" class="st1" width="25" height="25"/>
	<rect x="660" y="522" class="st1" width="25" height="25"/>
	<rect x="660" y="472" class="st1" width="25" height="25"/>
	<rect x="660" y="447" class="st1" width="25" height="25"/>
	<rect x="660" y="597" class="st1" width="25" height="25"/>
	<rect x="660" y="497" class="st1" width="25" height="25"/>
	<rect x="785" y="647" class="st1" width="25" height="25"/>
	<rect x="735" y="647" class="st1" width="25" height="25"/>
	<rect x="760" y="647" class="st1" width="25" height="25"/>
	<rect x="810" y="647" class="st1" width="25" height="25"/>
	<rect x="710" y="647" class="st1" width="25" height="25"/>
	<rect x="660" y="622" class="st1" width="25" height="25"/>
	<rect x="660" y="647" class="st1" width="25" height="25"/>
	<rect x="685" y="647" class="st1" width="25" height="25"/>
</g>
<g class="st0">
	<rect x="635" y="297" class="st2" width="400" height="400"/>
	<rect x="635" y="297" class="st2" width="50" height="50"/>
	<rect x="985" y="297" class="st2" width="50" height="50"/>
	<rect x="635" y="647" class="st2" width="50" height="50"/>
	<rect x="985" y="647" class="st2" width="50" height="50"/>
	<rect x="685" y="347" class="st2" width="150" height="150"/>
	<rect x="835" y="347" class="st2" width="150" height="150"/>
	<rect x="685" y="497" class="st2" width="150" height="150"/>
	<rect x="835" y="497" class="st2" width="150" height="150"/>
	<line class="st2" x1="635" y1="297" x2="1035" y2="697"/>
	<line class="st2" x1="1035" y1="297" x2="635" y2="697"/>
	<circle class="st2" cx="835" cy="497" r="150"/>
	<circle class="st2" cx="835" cy="497" r="200"/>
</g>
<g transform="translate(-225.82 -139.95)" class="st0">
	<path class="st3" d="M1966.5,731.4c0-3.1,3.1-3.1,3.1,0l2.4,49.6c0,3.1,3,3.1,3,0l2.3-49.6c0-3.1,3.1-3.1,3.1,0l2.3,49.6
		c0,3.1,3.1,3.1,3.1,0l2.3-49.6c0-3.1,3.1-3.1,3.1,0l2.4,49.6c-0.1,3.1,3,3.1,3,0l2.3-49.6c0-3.1,3.1-3.1,3.1,0l2.3,58.2
		c0,15.2-16.1,14.4-15.8,27.6l5.1,147.1c0,6.1-4.6,9.2-9.2,9.2c-4.5,0-9.2-3.1-9.2-9.2l6.5-147.1c0.3-13.2-17.2-12.3-17.2-27.6
		L1966.5,731.4L1966.5,731.4z"/>
</g>
<g class="st4">
	<path class="st3" d="M1819.4,670.9c-2.9,1.6-4.2,4.7-4.2,8.4l3.8,142.4c0,7-3.9,10.6-7.8,10.6c-3.9,0-7.8-3.5-7.8-10.6
		c1.3-47.5,2.7-94.9,4-142.4c0-4-1.4-7-4.1-8.3c-9.9-5.5-14.7-21.6-14.7-40.6c0-23.5,10.2-42.6,22.7-42.6s22.7,19.1,22.7,42.6
		C1833.9,649.3,1829.2,665.3,1819.4,670.9L1819.4,670.9z"/>
</g>
<g class="st0">
	<g class="st3">
		<g>
			<g>
				<path class="st5" d="M818.5,646.4c27.4-3.7,49.4-14.9,66.1-33.6c20.8-23.3,31.2-56.4,31.2-99.5v-21.5c0-41.8-9.8-74.4-29.5-97.6
					c-19.6-23.2-47.6-28.4-83.6-35.3"/>
				<g>
					<g>
						<path d="M801,388.1c0,0,1.4,0.3,3.9,0.9c1.2,0.3,2.7,0.7,4.5,1.1c1.7,0.4,3.6,0.9,5.6,1.4c2.1,0.5,4.2,1.1,6.5,1.7
							c1.1,0.3,2.2,0.6,3.4,1c0.6,0.2,1.2,0.3,1.8,0.5c0.6,0.2,1.1,0.4,1.7,0.5c4.7,1.4,9.2,3.1,13.2,4.9l1.5,0.7l0.8,0.3l0.7,0.4
							c0.9,0.5,1.8,0.9,2.7,1.4c0.8,0.5,1.6,1,2.4,1.5c0.4,0.2,0.8,0.5,1.1,0.7c0.4,0.2,0.7,0.5,1.1,0.7c2.8,2,5,3.9,6.6,5.8
							c0.4,0.5,0.9,0.9,1.2,1.3c0.4,0.5,0.7,0.9,1,1.3c0.3,0.4,0.6,0.8,0.9,1.1c0.3,0.4,0.6,0.8,0.9,1.2c0.5,0.7,0.9,1.3,1.2,1.7
							c0.3,0.4,0.4,0.6,0.4,0.6c0.6,0.9,1.3,1.6,2,2.3c0.7,0.7,1.4,1.3,2.2,1.8c1.6,1,3.3,1.8,5.1,2.3c1.9,0.5,3.8,1,5.8,1.3
							c2,0.3,4.2,0.6,6.2,0.9c2.1,0.3,4.2,0.7,6.2,1.2c2,0.5,3.9,1.3,5.7,2.2c0.9,0.5,1.8,1,2.5,1.7c0.8,0.7,1.5,1.4,2.2,2.2
							c0.7,0.8,1.3,1.8,1.8,2.8c0.5,1.1,0.9,2.2,1.2,3.5c0,0,0.2,0.9,0.6,2.6c0.3,1.7,0.8,4.2,1.3,7.3c1,6.3,2,15.5,2.2,26.5
							c0,2.8,0.1,5.6-0.1,8.6c-0.1,3-0.2,6-0.3,9.3c-0.1,3.2-0.3,6.6-0.4,10c-0.1,1.7-0.2,3.4-0.2,5.2c0,0.9-0.1,1.7-0.1,2.6
							c-0.1,0.9-0.1,1.7-0.2,2.6c-0.1,1.7-0.2,3.4-0.3,5.2c-0.2,1.7-0.3,3.5-0.5,5.2c-0.1,0.9-0.2,1.7-0.3,2.6
							c-0.1,0.9-0.2,1.7-0.3,2.6c-0.2,1.8-0.4,3.5-0.7,5.3c-1,7-2.6,14-4.5,20.9c-3.8,13.7-9.8,26.3-17.2,36.5
							c-3.7,5.1-7.7,9.6-11.9,13.5c-4.2,3.9-8.5,7-12.6,9.6c-8.3,5.2-16,8-21.5,9.6c-2.8,0.8-4.9,1.4-6.4,1.7
							c-1.5,0.3-2.3,0.5-2.3,0.5c-4.3,1-7.1,3.5-9,6.7c-1.8,3.2-2.6,7.1-2.1,10.8c0.5,3.7,2.3,7.3,5.4,9.6c3.1,2.4,7.6,3.4,13.1,2.1
							c0,0,1-0.3,2.9-0.9c1.9-0.6,4.7-1.5,8.2-2.9c6.9-2.7,16.8-7.3,27.2-15c5.2-3.9,10.4-8.5,15.4-13.9c5-5.4,9.6-11.5,13.7-18.3
							c8.2-13.5,14-29.2,17.1-45c1.5-7.9,2.6-15.8,3.1-23.6c0.2-1.9,0.2-3.9,0.3-5.8c0-1,0.1-1.9,0.1-2.9c0-1,0-1.9,0-2.9
							c0-1.9,0-3.8,0.1-5.6c0-1.9-0.1-3.7-0.1-5.5c0-0.9,0-1.8-0.1-2.7c0-0.9-0.1-1.7-0.1-2.6c-0.1-1.7-0.1-3.5-0.2-5.2
							c-0.1-3.4-0.2-6.7-0.3-10c-0.1-3.2-0.3-6.5-0.4-9.6c-0.1-3.1-0.5-6.2-0.7-9.1c-1.1-11.7-2.9-21.3-4.5-28
							c-0.8-3.3-1.6-5.9-2-7.7c-0.5-1.8-0.8-2.7-0.8-2.7c-0.4-1.4-0.7-2.7-0.9-3.9c-0.2-1.2-0.3-2.4-0.3-3.6c0-1.2,0.1-2.3,0.2-3.4
							c0.1-1.1,0.3-2.1,0.6-3.2c0.5-2.1,1.3-4.1,2.1-6.2c0.8-2,1.7-4.1,2.5-6.2c0.9-2.1,1.6-4.3,2.2-6.6c0.6-2.3,1-4.8,0.9-7.4
							c-0.1-2.6-0.4-5.5-1.5-8.5c-0.5-1.5-1.1-3.1-2-4.6c-0.9-1.6-1.9-3.2-3.1-4.8c0,0-0.3-0.4-0.9-1.1c-0.6-0.7-1.5-1.7-2.6-3
							c-0.6-0.7-1.2-1.4-1.8-2.2c-0.7-0.8-1.6-1.7-2.5-2.6c-0.9-0.9-1.9-1.9-2.9-3c-1-1-2.2-2-3.4-3.1c-0.6-0.5-1.2-1.1-1.8-1.6
							c-0.3-0.3-0.6-0.6-1-0.8c-0.3-0.3-0.7-0.5-1-0.8c-1.4-1.1-2.8-2.1-4.2-3.3c-1.5-1.1-3-2.1-4.6-3.2c-0.8-0.5-1.6-1-2.4-1.6
							c-0.8-0.5-1.7-1-2.5-1.4c-0.8-0.5-1.7-1-2.6-1.4c-0.9-0.5-1.7-1-2.6-1.4c-1.8-0.8-3.5-1.7-5.3-2.6c-1.8-0.7-3.6-1.5-5.4-2.2
							l-1.3-0.5l-1.3-0.5l-2.7-0.9c-7.1-2.4-14-4.3-20.1-5.6c-0.8-0.2-1.5-0.3-2.3-0.5c-0.7-0.2-1.5-0.3-2.2-0.4
							c-1.5-0.3-2.9-0.6-4.3-0.9c-2.7-0.5-5.3-1-7.6-1.4c-2.3-0.4-4.4-0.7-6.3-1c-1.8-0.3-3.5-0.5-4.8-0.7c-2.6-0.4-4.1-0.6-4.1-0.6
							c-5-1-5.9,4-1,4.9c0,0,4.9,1.2,12.6,3.1c7.7,2,18.2,4.6,29.2,8.7c2.8,1.1,5.5,2.1,8.2,3.3c1.4,0.6,2.7,1.1,4,1.8
							c1.3,0.7,2.6,1.3,3.9,2c1.3,0.6,2.6,1.4,3.8,2.1c1.2,0.7,2.4,1.3,3.6,2.1c1.2,0.8,2.3,1.5,3.4,2.2c0.5,0.4,1.1,0.7,1.6,1
							c0.5,0.4,1,0.7,1.5,1.1c3.9,2.8,6.9,5.6,9.1,7.5c2,2,3.1,3.2,3.1,3.2c2.4,2.2,2.4,4.3,1.5,5.1c-0.9,0.9-2.8,0.5-5-1.6
							c0,0-1.2-1-3.2-2.8c-2.1-1.6-5.2-4-9-6.3c-0.5-0.3-1-0.6-1.5-0.9c-0.5-0.3-1-0.6-1.6-0.9c-1.1-0.6-2.2-1.2-3.3-1.8
							c-1.1-0.6-2.3-1.1-3.5-1.7c-1.2-0.5-2.4-1.2-3.7-1.7c-2.5-1-5.1-2.1-7.8-2.9c-2.6-1-5.3-1.7-8-2.5
							c-10.7-2.9-21.1-4.6-28.8-5.9c-7.7-1.2-12.7-1.9-12.7-1.9c-4.9-1-5.9,4-1,4.9c0,0,4.9,1.2,12.4,3c7.5,1.9,17.5,4.5,27.3,8.2
							c2.4,1,4.9,1.9,7.3,3c2.4,1,4.7,2.2,6.9,3.3c1.1,0.5,2.1,1.2,3.2,1.8c1,0.6,2.1,1.1,3,1.8c0.9,0.6,1.9,1.2,2.8,1.8
							c0.4,0.3,0.9,0.6,1.3,0.9c0.4,0.3,0.8,0.6,1.2,0.9c3.2,2.3,5.6,4.6,7.3,6.1c1.6,1.7,2.5,2.6,2.5,2.6c1.9,1.8,1.8,3.7,0.9,4.5
							c-1,0.9-2.6,0.8-4.4-0.9c0,0-0.9-0.8-2.6-2.2c-1.7-1.3-4.1-3.2-7.3-5c-0.4-0.2-0.8-0.5-1.2-0.7c-0.4-0.2-0.8-0.5-1.3-0.7
							c-0.9-0.5-1.8-1-2.7-1.4c-0.9-0.5-1.9-0.9-2.9-1.4c-1-0.4-2-1-3.1-1.4c-2.1-0.8-4.3-1.7-6.6-2.5c-2.3-0.8-4.7-1.5-7-2.1
							c-9.5-2.6-19.4-4.2-26.9-5.4c-7.5-1.2-12.5-1.9-12.5-1.9c-4.9-0.9-5.9,4-1,4.9c0,0,5,1.2,12.2,3c7.2,1.9,16.8,4.4,25.4,7.7
							c2.1,0.9,4.3,1.7,6.3,2.6c2.1,0.9,3.9,1.9,5.7,2.8c0.9,0.4,1.7,1,2.6,1.5c0.8,0.5,1.7,0.9,2.4,1.5c0.7,0.5,1.5,1,2.2,1.5
							c0.3,0.2,0.7,0.5,1,0.7c0.3,0.3,0.6,0.5,0.9,0.7c2.5,1.8,4.3,3.6,5.6,4.8c1.2,1.3,1.9,2,1.9,2c1.5,1.3,1.2,3,0.3,3.8
							c-0.9,0.9-2.4,0.9-3.7-0.3c0,0-0.7-0.6-2-1.6c-1.3-0.9-3.2-2.3-5.6-3.7c-0.3-0.2-0.6-0.4-0.9-0.6c-0.3-0.2-0.7-0.3-1-0.5
							c-0.7-0.4-1.4-0.7-2.1-1.1c-0.7-0.4-1.5-0.7-2.3-1.1c-0.8-0.3-1.6-0.8-2.5-1.1c-1.8-0.7-3.5-1.4-5.5-2c-1.9-0.7-4-1.2-6.1-1.8
							c-8.4-2.2-17.8-3.7-25-4.9c-7.4-1.1-12.3-1.8-12.3-1.8C797,382.2,796.1,387.2,801,388.1z"/>
					</g>
				</g>
			</g>
		</g>
	</g>
</g>
<g>
	<path class="st6" d="M645.9,530.9c4.6-2,6.7-5.8,6.7-10.5l-6.1-176.2c0-8.7,6.3-13.1,12.6-13.1c6.2,0,12.6,4.4,12.6,13.1
		c-2.1,58.7-4.3,117.5-6.4,176.2c0,4.9,2.2,8.7,6.6,10.3c16,6.8,23.7,26.7,23.7,50.2c0,29.1-16.3,52.6-36.5,52.6
		c-20.2,0-36.5-23.6-36.5-52.6C622.6,557.6,630.2,537.9,645.9,530.9L645.9,530.9z"/>
</g>
<g>
	<g>
		<g>
			<g>
				<path class="st6" d="M686.1,387c0,0,0.3,0.1,0.9,0.2c0.6,0.1,1.4,0.2,2.5,0.5c1.1,0.2,2.4,0.5,3.9,0.8c1.5,0.3,3.2,0.8,5,1.2
					c1.8,0.4,3.7,1.1,5.8,1.7c2,0.6,4.2,1.4,6.4,2.1c2.2,0.9,4.4,1.6,6.6,2.6c1.1,0.5,2.2,0.9,3.4,1.4c1.1,0.5,2.2,1,3.3,1.6
					c8.8,4.2,16.9,9.6,22.4,13.9c1.4,1.1,2.6,2.1,3.7,3c1.1,0.9,2,1.8,2.7,2.4c1.5,1.3,2.3,2.2,2.3,2.2c0.9,0.8,1.8,1.5,2.8,2
					c0.9,0.6,1.8,1.1,2.8,1.4c1.9,0.7,3.8,1.1,5.8,1.3c2,0.1,4.1,0.1,6.1,0c2.1-0.1,4.3-0.4,6.4-0.6c4.2-0.4,8.6-0.7,12.5,0.4
					c1,0.3,2,0.6,2.9,1c0.9,0.4,1.8,1,2.6,1.6c0.8,0.7,1.7,1.4,2.4,2.3c0.7,0.9,1.4,1.9,2,3.1c0,0,0.1,0.2,0.3,0.6
					c0.2,0.4,0.5,1,0.9,1.8c0.3,0.8,0.8,1.8,1.3,2.9c0.5,1.1,1.1,2.4,1.6,3.9c2.3,5.9,5,14.7,6.5,25.4c0.1,0.7,0.2,1.3,0.3,2
					c0.1,0.7,0.1,1.4,0.2,2.1c0.1,1.4,0.3,2.8,0.4,4.3c0.1,2.9,0.3,5.9,0.1,9c0,3.1-0.3,6.3-0.5,9.5c-0.2,1.6-0.4,3.2-0.6,4.9
					c-0.2,1.6-0.5,3.3-0.8,4.9c-2.4,13.2-7.1,26.7-14.3,38.8c-7.1,12.2-16.3,22.9-26.2,31.3c-4.9,4.2-10.1,7.9-15.1,10.9
					c-5.1,3.1-10,5.7-14.7,7.7c-9.4,4.2-17.7,6.3-23.5,7.6c-1.5,0.3-2.8,0.5-3.9,0.7c-0.6,0.1-1.1,0.2-1.6,0.3
					c-0.5,0.1-0.9,0.1-1.3,0.2c-1.6,0.2-2.4,0.3-2.4,0.3c-2.2,0.5-4.1,1.1-5.7,2.2c-1.6,1.1-2.9,2.4-3.9,3.9c-2,3.1-3,7-2.8,10.7
					c0.3,3.8,1.8,7.5,4.8,10c1.5,1.3,3.3,2.3,5.5,2.8c2.2,0.5,4.7,0.7,7.5,0.1c0,0,1-0.2,3-0.7c0.5-0.1,1-0.2,1.6-0.4
					c0.6-0.2,1.2-0.3,1.9-0.5c1.4-0.4,3-0.8,4.8-1.3c7.1-2.1,17.1-5.6,28.1-11.6c5.6-2.9,11.3-6.6,17.1-10.8
					c5.8-4.2,11.6-9.1,17.1-14.6c11-11,21-24.5,28.1-39.4c7.2-14.8,11.5-31,13-46.2c0.2-1.9,0.4-3.8,0.5-5.7
					c0.1-1.9,0.2-3.7,0.2-5.6c0-3.7,0-7.3-0.3-10.7c-0.1-3.5-0.6-6.9-1-10.1c-0.2-1.6-0.5-3.2-0.8-4.8c-0.1-0.8-0.3-1.6-0.4-2.3
					c-0.2-0.8-0.3-1.5-0.5-2.3c-2.6-11.9-6.4-21.4-9.5-27.7c-0.7-1.6-1.5-3-2.1-4.2c-0.6-1.2-1.2-2.2-1.6-3.1
					c-0.4-0.8-0.8-1.4-1.1-1.9c-0.3-0.4-0.4-0.6-0.4-0.6c-0.7-1.2-1.3-2.5-1.8-3.7c-0.5-1.2-0.9-2.3-1.2-3.4
					c-0.3-1.1-0.5-2.3-0.6-3.4c-0.2-1.1-0.2-2.2-0.3-3.3c0-4.4,0.8-8.7,1.4-13.3c0.3-2.3,0.5-4.6,0.5-7c0-1.2-0.1-2.4-0.2-3.7
					c-0.1-1.2-0.4-2.5-0.7-3.7c-0.6-2.5-1.6-5.1-3.3-7.7c-0.8-1.3-1.8-2.6-2.9-3.9c-1.1-1.3-2.4-2.6-3.9-3.9c0,0-0.4-0.3-1-0.9
					c-0.7-0.6-1.7-1.3-3-2.3c-1.3-1-2.8-2.2-4.7-3.5c-1.8-1.3-3.9-2.7-6.2-4.3c-9.2-6-21.9-13-35.3-18.1c-1.7-0.6-3.3-1.3-5-1.9
					c-1.7-0.6-3.3-1.1-5-1.7c-3.3-1.1-6.6-2-9.8-3c-3.2-0.8-6.3-1.6-9.3-2.3c-3-0.6-5.8-1.3-8.4-1.7c-2.6-0.4-5-0.9-7.1-1.1
					c-2.1-0.3-4-0.5-5.5-0.7c-1.5-0.2-2.7-0.3-3.5-0.4c-0.8-0.1-1.3-0.1-1.3-0.1c-5.9-0.7-6.3,4.3-0.6,5c0,0,0.4,0.1,1,0.2
					c0.7,0.1,1.7,0.3,2.9,0.5c1.2,0.3,2.8,0.6,4.5,0.9c0.9,0.2,1.8,0.4,2.8,0.6c1,0.2,2,0.5,3,0.7c8.5,2,19.6,5.5,30.3,10l2,0.8
					l2,0.9c1.3,0.6,2.6,1.2,3.9,1.8c2.6,1.2,5.1,2.6,7.5,3.8c2.4,1.3,4.7,2.6,6.8,3.9c2.1,1.3,4.1,2.6,6,3.7
					c1.8,1.2,3.5,2.3,4.9,3.3c1.5,1,2.7,2,3.7,2.7c1,0.8,1.8,1.4,2.4,1.8c0.5,0.4,0.8,0.6,0.8,0.6c4.7,3.4,1.5,7.4-2.9,4
					c0,0-0.3-0.2-0.9-0.5c-0.6-0.3-1.4-0.9-2.4-1.5c-1.1-0.6-2.3-1.5-3.8-2.3c-1.5-0.8-3.2-1.8-5-2.8c-1.9-1-3.9-2-6-3.1
					c-2.2-1-4.5-2.1-6.9-3.2c-2.4-1-4.9-2-7.5-3c-1.3-0.5-2.6-0.9-3.9-1.4l-1.9-0.7l-2-0.6c-10.5-3.5-21.3-5.8-29.4-7
					c-1-0.2-2-0.3-2.9-0.5c-0.9-0.1-1.8-0.2-2.6-0.3c-1.7-0.2-3.1-0.4-4.3-0.5c-1.2-0.1-2.1-0.2-2.8-0.2c-0.6-0.1-1-0.1-1-0.1
					c-5.4-0.7-5.8,4.4-0.6,5c0,0,0.3,0.1,0.9,0.2c0.6,0.1,1.5,0.2,2.7,0.5c1.1,0.2,2.5,0.5,4.1,0.9c0.8,0.2,1.6,0.3,2.5,0.5
					c0.9,0.2,1.8,0.4,2.8,0.7c7.7,1.9,17.8,5,27.5,9.2l1.8,0.8l1.8,0.8c1.2,0.6,2.4,1.1,3.5,1.7c2.3,1.1,4.6,2.3,6.8,3.5
					c2.1,1.2,4.2,2.4,6.1,3.5c1.9,1.2,3.7,2.3,5.4,3.4c1.6,1.1,3.1,2.1,4.4,3c1.3,0.9,2.4,1.8,3.3,2.4c0.9,0.7,1.6,1.2,2.1,1.6
					c0.5,0.4,0.7,0.6,0.7,0.6c4.2,3.1,1,7.1-3,4.2c0,0-0.3-0.2-0.8-0.5c-0.5-0.3-1.2-0.8-2.2-1.3c-0.9-0.6-2.1-1.3-3.4-2
					c-1.3-0.7-2.8-1.6-4.5-2.5c-1.7-0.8-3.5-1.8-5.4-2.7c-1.9-0.9-4-1.8-6.2-2.8c-2.2-0.9-4.4-1.8-6.7-2.7c-1.2-0.4-2.3-0.8-3.5-1.3
					l-1.8-0.6l-1.8-0.6c-9.5-3.1-19.2-5.2-26.6-6.3c-0.9-0.1-1.8-0.3-2.6-0.4c-0.8-0.1-1.6-0.2-2.4-0.3c-1.5-0.2-2.8-0.3-3.9-0.4
					c-1.1-0.1-1.9-0.2-2.5-0.2c-0.6,0-0.9-0.1-0.9-0.1c-4.9-0.6-5.3,4.4-0.6,5c0,0,0.3,0.1,0.8,0.1c0.6,0.1,1.4,0.2,2.4,0.4
					c1,0.2,2.3,0.5,3.7,0.8c0.7,0.2,1.5,0.3,2.3,0.5c0.8,0.2,1.6,0.4,2.5,0.6c7,1.7,16.1,4.6,24.7,8.4l1.6,0.7l1.6,0.8
					c1.1,0.5,2.1,1,3.2,1.5c2.1,1,4.1,2.1,6,3.1c1.9,1.1,3.7,2.1,5.5,3.2c1.7,1.1,3.3,2.1,4.8,3c1.4,1,2.7,1.9,3.9,2.7
					c1.2,0.8,2.1,1.6,2.9,2.2c0.8,0.6,1.4,1.1,1.9,1.4c0.4,0.3,0.7,0.5,0.7,0.5c3.7,2.7,0.6,6.6-2.9,4c0,0-0.2-0.2-0.7-0.4
					c-0.4-0.3-1.1-0.7-1.9-1.2c-0.8-0.5-1.8-1.1-3-1.8c-1.2-0.6-2.5-1.4-4-2.2c-1.5-0.7-3.1-1.5-4.8-2.4c-1.7-0.8-3.6-1.6-5.5-2.5
					c-2-0.8-3.9-1.6-6-2.3c-1-0.4-2.1-0.7-3.1-1.1l-1.6-0.6l-1.6-0.5c-8.5-2.7-17.2-4.5-23.8-5.4c-0.8-0.1-1.6-0.2-2.4-0.3
					c-0.8-0.1-1.5-0.2-2.1-0.2c-1.3-0.1-2.5-0.3-3.5-0.4c-1-0.1-1.7-0.1-2.2-0.2c-0.5,0-0.8-0.1-0.8-0.1
					C682.4,381.4,681.9,386.5,686.1,387z"/>
			</g>
		</g>
	</g>
</g>
<g class="st0">
	<g class="st3">
		<g>
			<g>
				<path class="st6" d="M1822.1,291.8c0,0,0.3,0.1,0.9,0.2c0.6,0.1,1.4,0.2,2.5,0.5c1.1,0.2,2.4,0.5,3.9,0.8c1.5,0.3,3.2,0.8,5,1.2
					c1.8,0.4,3.8,1.1,5.8,1.7c2,0.7,4.2,1.4,6.4,2.1c2.2,0.9,4.4,1.6,6.6,2.6c1.1,0.5,2.3,0.9,3.4,1.5c1.1,0.5,2.2,1,3.3,1.6
					c8.8,4.3,16.9,9.6,22.4,14c1.4,1.1,2.6,2.1,3.7,3.1c1.1,0.9,2,1.8,2.7,2.5c0.8,0.7,1.4,1.2,1.7,1.6c0.4,0.4,0.6,0.6,0.6,0.6
					c0.9,0.8,1.8,1.5,2.8,2c0.9,0.6,1.8,1.1,2.8,1.4c1.9,0.7,3.8,1.2,5.8,1.3c2,0.1,4.1,0.1,6.2,0c2.1-0.1,4.3-0.4,6.4-0.6
					c2.1-0.2,4.3-0.3,6.4-0.3c2.1,0,4.1,0.3,6.1,0.8c1,0.3,2,0.6,2.9,1c0.9,0.5,1.8,1,2.6,1.7c0.8,0.7,1.7,1.4,2.4,2.3
					c0.7,0.9,1.4,2,2,3.1c0,0,0.1,0.2,0.3,0.6c0.2,0.4,0.5,1,0.8,1.8c0.3,0.8,0.8,1.8,1.3,2.9c0.2,0.6,0.5,1.2,0.8,1.8
					c0.3,0.7,0.5,1.4,0.8,2.1c2.3,6,5,14.7,6.5,25.5c0.1,0.7,0.2,1.3,0.3,2c0.1,0.7,0.1,1.4,0.2,2.1c0.1,1.4,0.3,2.8,0.4,4.3
					c0.1,2.9,0.3,5.9,0.1,9c0,3.1-0.3,6.3-0.5,9.5c-0.2,1.6-0.4,3.2-0.6,4.9c-0.2,1.6-0.5,3.3-0.8,4.9c-2.4,13.2-7.1,26.8-14.3,39
					c-7.1,12.2-16.3,23-26.2,31.4c-4.9,4.3-10.1,7.9-15.1,11c-5,3.1-10,5.7-14.7,7.8c-9.4,4.2-17.7,6.4-23.5,7.6
					c-1.5,0.3-2.8,0.5-3.9,0.7c-1.1,0.2-2.1,0.4-2.9,0.5c-1.6,0.2-2.4,0.3-2.4,0.3c-2.2,0.5-4.1,1.1-5.7,2.2
					c-1.6,1.1-2.9,2.4-3.9,3.9c-2,3.1-3,7-2.8,10.7c0.3,3.8,1.8,7.5,4.8,10.1c1.5,1.3,3.4,2.3,5.5,2.8c2.2,0.5,4.7,0.7,7.5,0.1
					c0,0,1-0.2,3-0.7c1-0.2,2.2-0.5,3.5-0.9c1.4-0.4,3-0.8,4.8-1.3c7.1-2.1,17.1-5.7,28.2-11.7c5.6-3,11.4-6.6,17.2-10.9
					c5.8-4.3,11.6-9.1,17.1-14.7c11-11.1,20.9-24.7,28-39.6c7.2-14.9,11.4-31.1,12.9-46.3c0.1-1.9,0.4-3.8,0.5-5.7
					c0.1-1.9,0.2-3.7,0.2-5.6c0-3.7,0-7.3-0.3-10.8c-0.1-3.5-0.6-6.9-1-10.1c-0.2-1.6-0.5-3.2-0.8-4.8c-0.1-0.8-0.3-1.6-0.4-2.3
					c-0.2-0.8-0.3-1.5-0.5-2.3c-2.6-11.9-6.4-21.4-9.4-27.8c-0.4-0.8-0.7-1.6-1.1-2.3c-0.4-0.7-0.7-1.3-1-2
					c-0.6-1.2-1.2-2.2-1.6-3.1c-0.4-0.8-0.8-1.4-1.1-1.9c-0.3-0.4-0.4-0.6-0.4-0.6c-0.7-1.3-1.3-2.5-1.8-3.7
					c-0.5-1.2-0.9-2.3-1.2-3.4c-0.3-1.1-0.5-2.3-0.6-3.4c-0.2-1.1-0.2-2.2-0.2-3.3c0-2.2,0.2-4.4,0.5-6.6c0.3-2.2,0.6-4.4,1-6.7
					c0.3-2.3,0.5-4.6,0.5-7c0-2.4-0.2-4.9-0.8-7.4c-0.6-2.5-1.6-5.2-3.3-7.7c-0.8-1.3-1.8-2.6-2.8-4c-1.1-1.3-2.4-2.6-3.9-3.9
					c0,0-0.4-0.3-1-0.9c-0.7-0.6-1.7-1.3-3-2.3c-1.3-1-2.8-2.2-4.7-3.5c-1.8-1.3-3.9-2.8-6.2-4.3c-9.2-6.1-22-13.1-35.3-18.3
					c-1.7-0.6-3.3-1.3-5-1.9c-1.7-0.6-3.4-1.1-5-1.7c-3.3-1.2-6.6-2.1-9.8-3c-3.2-0.9-6.3-1.6-9.3-2.3c-3-0.6-5.8-1.3-8.4-1.7
					c-2.6-0.4-5-0.9-7.1-1.2c-2.1-0.3-4-0.5-5.5-0.7c-1.5-0.2-2.7-0.3-3.5-0.4c-0.8-0.1-1.3-0.1-1.3-0.1c-5.9-0.7-6.3,4.3-0.6,5
					c0,0,0.4,0.1,1,0.2c0.7,0.1,1.7,0.3,2.9,0.5c1.3,0.3,2.8,0.6,4.5,0.9c0.9,0.2,1.8,0.4,2.8,0.6c1,0.2,2,0.5,3,0.7
					c8.5,2,19.7,5.5,30.3,10.1l2,0.8l2,0.9c1.3,0.6,2.6,1.2,3.9,1.8c2.6,1.3,5.1,2.6,7.5,3.8c2.4,1.4,4.7,2.6,6.8,3.9
					c2.1,1.3,4.1,2.6,6,3.7c1.8,1.2,3.5,2.4,4.9,3.4c1.5,1,2.7,2,3.7,2.7c1,0.8,1.8,1.4,2.4,1.8c0.6,0.4,0.8,0.6,0.8,0.6
					c4.7,3.5,1.5,7.5-2.9,4c0,0-0.3-0.2-0.9-0.6c-0.6-0.4-1.4-0.9-2.4-1.5c-1.1-0.6-2.3-1.5-3.8-2.3c-1.5-0.8-3.2-1.8-5-2.8
					c-1.9-1-3.9-2-6.1-3.1c-2.2-1.1-4.5-2.1-6.9-3.2c-2.4-1-4.9-2.1-7.5-3c-1.3-0.5-2.6-0.9-3.9-1.4l-2-0.7l-2-0.6
					c-10.5-3.5-21.3-5.9-29.5-7.1c-1-0.2-2-0.3-2.9-0.5c-0.9-0.1-1.8-0.2-2.6-0.3c-1.7-0.2-3.1-0.4-4.3-0.5
					c-1.2-0.1-2.1-0.2-2.8-0.2c-0.6-0.1-1-0.1-1-0.1c-5.4-0.7-5.8,4.4-0.6,5c0,0,0.3,0.1,0.9,0.2c0.6,0.1,1.5,0.2,2.7,0.5
					c1.1,0.2,2.5,0.5,4.1,0.9c0.8,0.2,1.6,0.3,2.5,0.5c0.9,0.2,1.8,0.5,2.8,0.7c7.7,1.9,17.9,5.1,27.5,9.3l1.8,0.8l1.8,0.8
					c1.2,0.6,2.4,1.1,3.5,1.7c2.3,1.1,4.6,2.4,6.8,3.5c2.1,1.2,4.2,2.4,6.2,3.5c1.9,1.2,3.7,2.3,5.4,3.4c1.6,1.1,3.1,2.1,4.4,3
					c1.3,0.9,2.4,1.8,3.3,2.5c0.9,0.7,1.6,1.2,2.1,1.6c0.5,0.4,0.7,0.6,0.7,0.6c4.2,3.1,1,7.1-3,4.2c0,0-0.3-0.2-0.8-0.5
					c-0.5-0.3-1.2-0.8-2.2-1.3c-0.9-0.6-2.1-1.3-3.4-2.1c-1.3-0.7-2.9-1.6-4.5-2.5c-1.7-0.9-3.5-1.8-5.4-2.8c-1.9-0.9-4-1.9-6.2-2.8
					c-2.2-0.9-4.4-1.8-6.7-2.7c-1.2-0.4-2.3-0.8-3.5-1.3l-1.8-0.6l-1.8-0.6c-9.5-3.1-19.3-5.2-26.7-6.3c-0.9-0.1-1.8-0.3-2.6-0.4
					c-0.8-0.1-1.6-0.2-2.4-0.3c-1.5-0.2-2.8-0.3-3.9-0.5c-1.1-0.1-1.9-0.2-2.5-0.2c-0.6,0-0.9-0.1-0.9-0.1c-4.9-0.6-5.3,4.4-0.6,5
					c0,0,0.3,0.1,0.9,0.2c0.6,0.1,1.4,0.2,2.4,0.4c1,0.2,2.3,0.5,3.7,0.8c0.7,0.2,1.5,0.3,2.3,0.5c0.8,0.2,1.6,0.4,2.5,0.6
					c7,1.7,16.1,4.7,24.7,8.5l1.6,0.7l1.6,0.8c1.1,0.5,2.1,1,3.2,1.5c2.1,1,4.1,2.1,6,3.2c1.9,1.1,3.8,2.2,5.5,3.2
					c1.7,1.1,3.3,2.1,4.8,3c1.4,1,2.7,1.9,3.9,2.7c1.2,0.8,2.1,1.6,2.9,2.2c0.8,0.6,1.4,1.1,1.9,1.4c0.4,0.3,0.7,0.5,0.7,0.5
					c3.7,2.7,0.6,6.6-2.9,4c0,0-0.2-0.2-0.7-0.4c-0.4-0.3-1.1-0.7-1.9-1.2c-0.8-0.5-1.8-1.1-3-1.8c-1.2-0.7-2.5-1.4-4-2.2
					c-1.5-0.7-3.1-1.6-4.8-2.4c-1.7-0.8-3.6-1.6-5.5-2.5c-2-0.8-3.9-1.6-6-2.4c-1-0.4-2.1-0.7-3.1-1.1l-1.6-0.6l-1.6-0.5
					c-8.5-2.7-17.3-4.6-23.9-5.5c-0.8-0.1-1.6-0.2-2.4-0.4c-0.8-0.1-1.5-0.2-2.1-0.2c-1.3-0.1-2.5-0.3-3.5-0.4
					c-1-0.1-1.7-0.1-2.3-0.2c-0.5,0-0.8-0.1-0.8-0.1C1818.4,286.2,1817.9,291.3,1822.1,291.8z"/>
			</g>
		</g>
	</g>
</g>
<g>
	<path d="M46,611.7l28.3-4.9V407.6L46,402.8v-22.1h195.4v60.8h-29.2l-2.8-33.9H108.5v87.2h97.8v26.9h-97.8v85.1l28.3,4.9v21.9H46
		V611.7z"/>
	<path d="M266.9,402.8v-22.1h90.8v22.1l-28.3,4.9v199.2l28.3,4.9v21.9h-90.8v-21.9l28.3-4.9V407.6L266.9,402.8z"/>
	<path d="M629.8,380.7v22.1l-28.3,4.9v226h-34.2L445.7,438.4l-1,0.3v168.1l28.3,4.9v21.9h-90.8v-21.9l28.3-4.9V407.6l-28.3-4.9
		v-22.1h28.3h34.2l121.6,195l1-0.3V407.6l-28.3-4.9v-22.1h62.5H629.8z"/>
</g>
<g>
	<path d="M853.9,613.6l25.9-4.4V486.4l-25.9-4.4v-20.2h57.2v147.4l25.9,4.4v20h-83.1V613.6z M911.1,417.8h-31.3v-31.9h31.3V417.8z"
		/>
	<path d="M956.2,613.6l25.9-4.4V486.4l-25.9-4.4v-20.2h53.8l2.2,25.6c5.7-9.1,12.9-16.2,21.5-21.2c8.6-5,18.4-7.5,29.5-7.5
		c18.5,0,32.9,5.4,43,16.3c10.2,10.9,15.2,27.6,15.2,50.3v84l25.9,4.4v20h-83.1v-20l25.9-4.4v-83.4c0-15.1-3-25.9-9-32.2
		c-6-6.4-15.1-9.5-27.4-9.5c-9,0-17,2.2-23.9,6.5c-6.9,4.3-12.5,10.3-16.6,17.8v100.8l25.9,4.4v20h-83.1V613.6z"/>
	<path d="M1170.1,613.6l25.9-4.4V486.4l-25.9-4.4v-20.2h57.2v147.4l25.9,4.4v20h-83.1V613.6z M1227.3,417.8H1196v-31.9h31.3V417.8z"
		/>
	<path d="M1272.4,613.6l25.9-4.4V486.4l-25.9-4.4v-20.2h53.8l2.2,25.6c5.7-9.1,12.9-16.2,21.5-21.2c8.6-5,18.4-7.5,29.5-7.5
		c18.5,0,32.9,5.4,43,16.3c10.2,10.9,15.2,27.6,15.2,50.3v84l25.9,4.4v20h-83.1v-20l25.9-4.4v-83.4c0-15.1-3-25.9-9-32.2
		c-6-6.4-15.1-9.5-27.4-9.5c-9,0-17,2.2-23.9,6.5c-6.9,4.3-12.5,10.3-16.6,17.8v100.8l25.9,4.4v20h-83.1V613.6z"/>
	<path d="M1474.2,550.9c0-27.6,6-49.9,18.1-66.9c12.1-16.9,28.7-25.4,50-25.4c10.8,0,20.3,2.1,28.4,6.4c8.2,4.2,15,10.4,20.5,18.4
		l2.9-21.6h26.4v169.6c0,22.2-6.2,39.7-18.6,52.5c-12.4,12.8-30,19.1-52.9,19.1c-8.3,0-17.2-1.1-26.8-3.4
		c-9.6-2.3-18.1-5.4-25.4-9.3l8.1-24.3c5.8,3.1,12.7,5.6,20.6,7.6c7.9,2,15.7,3,23.2,3c14,0,24.2-3.9,30.7-11.8
		c6.5-7.8,9.8-19,9.8-33.5V615c-5.6,7.2-12.3,12.7-20.2,16.4c-7.8,3.7-16.8,5.6-27,5.6c-21.1,0-37.6-7.6-49.7-22.9
		c-12.1-15.2-18.1-35.2-18.1-59.9V550.9z M1505.5,554.2c0,17.3,3.7,31.1,11,41.6c7.3,10.5,18.4,15.7,33.4,15.7
		c9.4,0,17.3-2.1,23.7-6.4c6.4-4.3,11.6-10.3,15.7-18.2v-79.1c-4-7.3-9.3-13.1-15.7-17.4c-6.5-4.3-14.2-6.4-23.3-6.4
		c-14.9,0-26.1,6.2-33.5,18.7c-7.4,12.5-11.1,28.5-11.1,48.1V554.2z"/>
</g>
<line class="st7" x1="38.1" y1="659.1" x2="1471.5" y2="658"/>
</svg>
