<?xml version="1.0" encoding="utf-8"?>
<!-- Generator: Adobe Illustrator 21.0.0, SVG Export Plug-In . SVG Version: 6.00 Build 0)  -->
<svg version="1.1" id="Layer_1" xmlns="http://www.w3.org/2000/svg" xmlns:xlink="http://www.w3.org/1999/xlink" x="0px" y="0px"
	 viewBox="0 0 2048 2048" style="enable-background:new 0 0 2048 2048;" xml:space="preserve">
<style type="text/css">
	.st0{fill:#F44336;}
	.st1{fill:#F44336;stroke:#FFFFFF;stroke-width:50;stroke-miterlimit:10;}
</style>
<path class="st0" d="M877.4,758.2c-57.2,50-132.1,80.3-214,80.3c-179.8,0-325.5-145.8-325.5-325.5s145.8-325.5,325.5-325.5
	c28.8,0,56.7,3.7,83.3,10.7"/>
<path class="st0" d="M877.4,758.2c-57.2,50-132.1,80.3-214,80.3c-179.8,0-325.5-145.8-325.5-325.5s145.8-325.5,325.5-325.5
	c28.8,0,56.7,3.7,83.3,10.7"/>
<path class="st0" d="M799,868c-41.3-19-87.3-29.5-135.7-29.5c-179.8,0-325.5,145.8-325.5,325.5v749.3h325.5"/>
<path class="st0" d="M799,868c-41.3-19-87.3-29.5-135.7-29.5c-179.8,0-325.5,145.8-325.5,325.5v749.3h325.5"/>
<path class="st0" d="M1159.5,762.9c57.2,50,126.6,75.5,208.5,75.5c179.8,0,325.5-145.8,325.5-325.5S1547.7,187.4,1368,187.4
	c-28.8,0-42.9,0.4-69.5,7.4"/>
<path class="st0" d="M1241,861.9c41.3-19,78.6-23.4,127.1-23.4c179.8,0,325.5,145.8,325.5,325.5v749.3h-325.5"/>
<circle class="st1" cx="1024" cy="428.6" r="360.6"/>
<path class="st1" d="M1384.6,1149.9c0-199.2-161.5-360.6-360.6-360.6s-360.6,161.5-360.6,360.6V1980h721.3L1384.6,1149.9
	L1384.6,1149.9z"/>
</svg>
