<?xml version="1.0" encoding="utf-8"?>
<!-- Generator: Adobe Illustrator 21.0.0, SVG Export Plug-In . SVG Version: 6.00 Build 0)  -->
<svg version="1.1" id="Layer_1" xmlns="http://www.w3.org/2000/svg" xmlns:xlink="http://www.w3.org/1999/xlink" x="0px" y="0px"
	 viewBox="0 0 512 512" style="enable-background:new 0 0 512 512;" xml:space="preserve">
<style type="text/css">
	.st0{fill:#F44336;}
</style>
<g>
	<path class="st0" d="M129.5,339.2c7.7-3.4,11.3-9.8,11.3-17.6L130.5,25.7c0-14.6,10.6-22,21.1-22c10.4,0,21.1,7.3,21.1,22
		c-3.6,98.6-7.2,197.3-10.8,295.9c0,8.3,3.7,14.6,11.1,17.3c26.9,11.4,39.9,44.8,39.9,84.3c0,48.8-27.4,88.4-61.3,88.4
		S90.3,472,90.3,423.1C90.3,384,103.1,350.8,129.5,339.2L129.5,339.2z"/>
</g>
<g>
	<g>
		<g>
			<g>
				<path class="st0" d="M197,97.4c0,0,0.5,0.1,1.5,0.3c1,0.2,2.4,0.4,4.2,0.8c1.8,0.4,4,0.8,6.5,1.4c2.5,0.5,5.3,1.3,8.4,2.1
					c1.5,0.4,3.1,0.8,4.7,1.3c1.6,0.5,3.3,1,5,1.5c1.7,0.5,3.5,1.1,5.2,1.7c1.8,0.6,3.6,1.2,5.4,1.9c3.6,1.4,7.4,2.7,11.1,4.4
					c1.9,0.8,3.8,1.6,5.6,2.4c1.9,0.9,3.7,1.8,5.6,2.6c14.8,7.1,28.3,16.1,37.7,23.4c2.3,1.8,4.4,3.6,6.2,5.1c1.8,1.5,3.3,3,4.6,4.1
					c1.3,1.1,2.3,2,2.9,2.7c0.6,0.6,1,1,1,1c1.5,1.4,3.1,2.5,4.7,3.4c1.5,1,3,1.8,4.6,2.4c3.2,1.2,6.4,1.9,9.8,2.2
					c1.7,0.1,3.4,0.1,5.1,0.1c1.7,0,3.4-0.1,5.2-0.2c1.8-0.1,3.5-0.3,5.3-0.5c0.9-0.1,1.8-0.2,2.7-0.3c0.9-0.1,1.8-0.2,2.7-0.2
					c3.6-0.3,7.1-0.6,10.7-0.6c0.9,0,1.8,0,2.7,0.1c0.9,0.1,1.7,0.1,2.6,0.2c1.7,0.2,3.4,0.5,5,0.9c1.7,0.4,3.3,1,4.9,1.7
					c1.5,0.8,3,1.7,4.4,2.8c1.4,1.1,2.8,2.4,4.1,3.9c1.2,1.5,2.3,3.3,3.4,5.2c0,0,0.2,0.3,0.5,1c0.3,0.7,0.9,1.6,1.4,3
					c0.6,1.3,1.3,2.9,2.1,4.9c0.4,1,0.9,2,1.3,3.1c0.5,1.1,0.9,2.3,1.4,3.5c3.9,10,8.5,24.6,10.9,42.6c0.2,1.1,0.3,2.3,0.5,3.4
					c0.1,1.2,0.2,2.3,0.3,3.5c0.2,2.4,0.4,4.7,0.6,7.2c0.1,4.9,0.5,9.9,0.2,15.1c0,5.2-0.5,10.5-0.9,15.9c-0.3,2.7-0.7,5.4-1,8.2
					c-0.1,1.4-0.4,2.7-0.6,4.1c-0.2,1.4-0.5,2.8-0.7,4.1c-4,22.1-12,44.9-24,65.2c-6,10.2-12.8,19.8-20.3,28.6
					c-7.5,8.8-15.5,16.8-23.8,23.9c-2.1,1.7-4.2,3.5-6.3,5.1c-2.1,1.6-4.3,3.2-6.3,4.8c-2.1,1.5-4.3,2.9-6.4,4.4l-1.6,1.1
					c-0.5,0.3-1.1,0.7-1.6,1c-1.1,0.7-2.1,1.3-3.2,2c-8.5,5.2-16.8,9.5-24.7,12.9c-15.8,7-29.7,10.6-39.4,12.7
					c-2.4,0.5-4.6,0.9-6.5,1.2c-0.9,0.2-1.8,0.3-2.6,0.5c-0.8,0.1-1.5,0.2-2.2,0.3c-2.6,0.4-4,0.6-4,0.6c-3.7,0.8-6.9,1.9-9.5,3.7
					c-2.6,1.9-4.8,4-6.6,6.6c-3.4,5.1-5.1,11.7-4.7,18c0.4,6.4,3,12.5,8,16.9c2.5,2.2,5.6,3.9,9.3,4.8c3.7,0.9,7.9,1.2,12.5,0.2
					c0,0,1.7-0.4,5-1.1c0.8-0.2,1.7-0.4,2.7-0.6c1-0.3,2.1-0.6,3.2-0.9c2.3-0.6,5-1.4,8-2.2c11.8-3.6,28.7-9.4,47.2-19.5
					c9.3-4.9,19-11,28.8-18.1c1.2-0.9,2.4-1.8,3.7-2.7c0.6-0.5,1.2-0.9,1.8-1.4c0.6-0.5,1.2-1,1.8-1.4c2.4-1.9,4.8-3.9,7.3-5.9
					c2.4-2.1,4.7-4.2,7.2-6.3c2.4-2.2,4.7-4.5,7-6.7c9.3-9.2,18.1-19.5,26.1-30.6c8-11.1,15.1-23.1,21.1-35.6
					c12.1-24.9,19.3-52,21.8-77.6c0.1-1.6,0.3-3.2,0.4-4.8c0.2-1.6,0.3-3.2,0.3-4.7c0.1-3.1,0.3-6.3,0.4-9.3c0-6.2,0-12.2-0.5-18
					c-0.2-5.9-1-11.5-1.6-17c-0.4-2.7-0.9-5.4-1.3-8c-0.2-1.3-0.4-2.6-0.7-3.9c-0.3-1.3-0.6-2.5-0.8-3.8
					c-4.3-20-10.7-35.9-15.9-46.5c-0.6-1.3-1.2-2.6-1.8-3.8c-0.6-1.2-1.2-2.3-1.7-3.3c-1.1-2-2-3.7-2.7-5.1
					c-0.7-1.4-1.4-2.4-1.8-3.1c-0.4-0.7-0.6-1.1-0.6-1.1c-1.2-2.1-2.2-4.1-3-6.1c-0.9-2-1.6-3.9-2.1-5.8c-0.5-1.9-0.8-3.8-1.1-5.6
					c-0.3-1.8-0.4-3.7-0.4-5.5s0-3.7,0.2-5.5c0.1-0.9,0.2-1.8,0.3-2.8c0.1-0.9,0.2-1.8,0.3-2.7c0.4-3.7,1-7.4,1.6-11.2
					c0.3-1.9,0.5-3.9,0.6-5.8c0.1-1.9,0.2-3.9,0.2-5.9c0-2-0.1-4.1-0.3-6.1c-0.2-2.1-0.6-4.1-1.2-6.2c-1.1-4.2-2.7-8.6-5.5-12.9
					c-1.4-2.2-2.9-4.4-4.8-6.6c-1.9-2.1-4.1-4.3-6.5-6.5c0,0-0.6-0.5-1.7-1.4c-1.1-1-2.8-2.2-5-3.9c-2.2-1.6-4.8-3.7-7.8-5.8
					c-3.1-2.1-6.5-4.6-10.4-7.1c-15.4-10.1-36.8-21.8-59.2-30.4c-2.8-1.1-5.6-2.1-8.4-3.2c-2.8-1-5.6-1.9-8.4-2.8
					c-5.5-1.9-11.1-3.4-16.5-5c-2.7-0.8-5.3-1.4-7.9-2c-2.6-0.6-5.1-1.3-7.6-1.8c-2.5-0.5-4.9-1-7.2-1.5c-2.3-0.5-4.6-1-6.8-1.3
					c-4.4-0.7-8.4-1.5-11.9-1.9c-3.6-0.5-6.7-0.9-9.2-1.2c-2.5-0.4-4.6-0.5-5.9-0.6c-1.4-0.1-2.1-0.2-2.1-0.2
					c-9.9-1.2-10.6,7.3-1.1,8.4c0,0,0.6,0.1,1.7,0.3c1.1,0.2,2.8,0.4,4.9,0.9c2.1,0.4,4.6,0.9,7.5,1.5c1.5,0.3,3,0.6,4.6,1
					c1.6,0.4,3.3,0.8,5.1,1.2c1.8,0.4,3.6,0.9,5.5,1.4c1.9,0.5,3.9,1.1,5.9,1.6c2,0.6,4.1,1.2,6.2,1.8c2.1,0.6,4.2,1.4,6.4,2
					c2.2,0.7,4.4,1.4,6.6,2.2c2.2,0.8,4.4,1.6,6.7,2.5c2.2,0.9,4.5,1.6,6.8,2.6c2.2,0.9,4.5,1.9,6.7,2.8l3.4,1.4
					c1.1,0.5,2.2,1,3.3,1.5c2.2,1,4.4,2,6.6,3c4.3,2.1,8.5,4.3,12.6,6.4c4,2.3,7.9,4.4,11.5,6.5c3.6,2.2,7,4.3,10,6.2
					c3,2.1,5.8,3.9,8.3,5.6c1.2,0.8,2.4,1.6,3.4,2.4c1,0.8,2,1.5,2.9,2.1c1.7,1.3,3.1,2.3,4,3c0.9,0.7,1.4,1.1,1.4,1.1
					c7.8,5.8,2.6,12.5-4.8,6.8c0,0-0.5-0.3-1.4-0.9c-0.9-0.6-2.3-1.4-4.1-2.5c-0.9-0.5-1.9-1.1-2.9-1.8c-1.1-0.7-2.2-1.4-3.5-2.1
					c-2.5-1.4-5.3-3-8.4-4.7c-3.1-1.6-6.6-3.3-10.1-5.2c-3.6-1.7-7.5-3.5-11.5-5.3c-4.1-1.6-8.2-3.4-12.5-5.1
					c-2.2-0.8-4.3-1.6-6.5-2.4c-1.1-0.4-2.2-0.8-3.3-1.2l-3.3-1.1c-2.2-0.7-4.4-1.4-6.6-2.1c-2.2-0.7-4.4-1.3-6.6-1.9
					c-2.2-0.6-4.4-1.2-6.5-1.8c-2.2-0.5-4.3-1-6.4-1.5c-2.1-0.5-4.2-1-6.2-1.4c-2-0.4-4-0.8-6-1.2c-1.9-0.4-3.8-0.8-5.7-1.1
					c-1.8-0.3-3.6-0.6-5.3-0.8c-1.7-0.3-3.3-0.5-4.9-0.8c-1.6-0.2-3-0.4-4.4-0.5c-2.8-0.3-5.2-0.6-7.2-0.8c-2-0.2-3.6-0.3-4.6-0.4
					c-1.1-0.1-1.6-0.1-1.6-0.1c-9-1.1-9.8,7.4-1.1,8.4c0,0,0.5,0.1,1.6,0.3c1,0.2,2.5,0.4,4.5,0.8c1.9,0.4,4.2,0.9,6.9,1.4
					c1.3,0.3,2.7,0.6,4.2,0.9c1.5,0.4,3,0.8,4.6,1.2c1.6,0.4,3.3,0.8,5,1.3c1.7,0.4,3.5,1,5.4,1.5c1.8,0.5,3.7,1.1,5.6,1.6
					c1.9,0.5,3.8,1.3,5.8,1.9c2,0.7,4,1.3,6,2c2,0.7,4,1.5,6.1,2.3c2,0.8,4.1,1.5,6.1,2.4c2,0.9,4.1,1.7,6.1,2.6l3,1.3l3,1.4
					c2,0.9,4,1.9,5.9,2.8c3.9,1.9,7.7,3.9,11.3,5.8c3.6,2.1,7.1,4,10.3,5.9c3.2,2,6.2,3.9,9,5.7c2.7,1.9,5.2,3.6,7.4,5.1
					c1.1,0.7,2.1,1.5,3,2.2c0.9,0.7,1.8,1.3,2.5,1.9c1.5,1.1,2.7,2,3.6,2.7c0.8,0.6,1.3,1,1.3,1c7,5.2,1.7,11.9-5,7
					c0,0-0.4-0.3-1.3-0.8c-0.8-0.5-2.1-1.3-3.7-2.2c-0.8-0.5-1.7-1-2.6-1.6c-0.9-0.6-2-1.2-3.1-1.8c-2.2-1.3-4.8-2.7-7.6-4.2
					c-2.8-1.4-5.9-3-9.1-4.6c-3.3-1.6-6.8-3.1-10.4-4.7c-3.7-1.5-7.4-3.1-11.3-4.5c-1.9-0.7-3.9-1.4-5.9-2.1l-3-1.1l-3-0.9
					c-15.9-5.2-32.3-8.7-44.7-10.5c-1.5-0.2-3-0.5-4.4-0.7c-1.4-0.2-2.8-0.3-4-0.5c-2.5-0.3-4.7-0.5-6.5-0.7
					c-1.8-0.2-3.2-0.3-4.2-0.4c-1-0.1-1.5-0.1-1.5-0.1c-8.2-1-8.9,7.5-1.1,8.4c0,0,0.5,0.1,1.4,0.2c0.9,0.2,2.3,0.4,4,0.7
					c1.7,0.4,3.8,0.8,6.2,1.3c1.2,0.3,2.5,0.5,3.8,0.8c1.3,0.3,2.7,0.7,4.2,1.1c11.7,2.9,27,7.8,41.5,14.2l2.7,1.2l2.7,1.3
					c1.8,0.8,3.6,1.7,5.3,2.5c3.5,1.7,6.8,3.6,10.1,5.2c3.2,1.9,6.3,3.6,9.2,5.3c2.8,1.8,5.5,3.5,8,5.1c2.4,1.7,4.6,3.2,6.6,4.5
					c1,0.7,1.9,1.3,2.7,2c0.8,0.6,1.6,1.2,2.2,1.7c1.4,1,2.4,1.8,3.1,2.4c0.7,0.5,1.1,0.9,1.1,0.9c6.2,4.6,1,11.1-4.8,6.7
					c0,0-0.4-0.3-1.1-0.7c-0.8-0.4-1.9-1.1-3.3-1.9c-0.7-0.4-1.5-0.9-2.3-1.4c-0.8-0.5-1.7-1.1-2.8-1.6c-2-1.1-4.2-2.3-6.7-3.7
					c-2.5-1.2-5.2-2.6-8.1-4c-2.9-1.3-6-2.7-9.2-4.1c-3.3-1.3-6.6-2.7-10.1-3.9c-1.7-0.6-3.5-1.2-5.2-1.8l-2.6-0.9l-2.7-0.8
					c-14.3-4.5-29-7.6-40.1-9.1c-1.4-0.2-2.7-0.4-4-0.6c-1.3-0.2-2.5-0.3-3.6-0.4c-2.3-0.2-4.2-0.5-5.8-0.6
					c-1.6-0.2-2.9-0.2-3.8-0.3C198.5,89,198,89,198,89C190.7,88,190,96.5,197,97.4z"/>
			</g>
		</g>
	</g>
</g>
</svg>
