<?xml version="1.0" encoding="utf-8"?>
<!-- Generator: Adobe Illustrator 16.0.4, SVG Export Plug-In . SVG Version: 6.00 Build 0)  -->
<!DOCTYPE svg PUBLIC "-//W3C//DTD SVG 1.1//EN" "http://www.w3.org/Graphics/SVG/1.1/DTD/svg11.dtd">
<svg version="1.1" id="Layer_1" xmlns="http://www.w3.org/2000/svg" xmlns:xlink="http://www.w3.org/1999/xlink" x="0px" y="0px"
	 width="256px" height="256px" viewBox="0 0 256 256" enable-background="new 0 0 256 256" xml:space="preserve">
<g>
	<path fill="#EF4538" d="M65.504,170.037c3.882-1.702,5.68-4.91,5.68-8.805L66.012,12.801c0-7.344,5.299-11.016,10.599-11.016
		c5.238,0,10.599,3.672,10.599,11.016c-1.808,49.476-3.62,98.955-5.426,148.432c0,4.15,1.845,7.303,5.587,8.655
		c13.482,5.695,19.99,22.468,19.99,42.274c0,24.493-13.768,44.35-30.75,44.35c-16.982,0-30.749-19.856-30.749-44.35
		c0-19.635,6.396-36.291,19.645-42.125H65.504z"/>
</g>
<g>
	<g>
		<g>
			<g>
				<path fill="#EF4538" d="M99.358,48.783c0,0,0.261,0.045,0.75,0.128c0.488,0.091,1.21,0.184,2.112,0.394
					c0.904,0.192,2.002,0.424,3.262,0.691c1.258,0.267,2.654,0.663,4.188,1.034c1.536,0.364,3.157,0.912,4.892,1.395
					c1.718,0.539,3.514,1.153,5.36,1.794c1.819,0.716,3.732,1.364,5.593,2.204c0.935,0.408,1.894,0.782,2.826,1.215
					c0.929,0.439,1.861,0.88,2.793,1.321c7.436,3.569,14.204,8.053,18.892,11.712c1.169,0.921,2.196,1.808,3.134,2.56
					c0.923,0.768,1.666,1.494,2.312,2.057c1.295,1.124,1.956,1.831,1.956,1.831c0.761,0.681,1.538,1.24,2.333,1.701
					c0.755,0.493,1.529,0.886,2.326,1.196c1.622,0.596,3.197,0.964,4.893,1.094c1.711,0.12,3.414,0.093,5.171-0.024
					c1.747-0.111,3.604-0.354,5.367-0.498c3.562-0.311,7.236-0.556,10.518,0.342c0.83,0.217,1.646,0.499,2.443,0.857
					c0.769,0.376,1.507,0.836,2.222,1.385c0.713,0.55,1.403,1.188,2.048,1.933c0.606,0.767,1.173,1.637,1.692,2.618
					c0,0,0.361,0.682,0.972,1.99c0.288,0.662,0.643,1.478,1.061,2.438c0.422,0.956,0.909,2.052,1.355,3.322
					c1.953,4.993,4.253,12.348,5.472,21.385c0.081,0.563,0.162,1.132,0.244,1.707c0.051,0.579,0.102,1.164,0.153,1.754
					c0.099,1.18,0.224,2.377,0.308,3.599c0.062,2.455,0.236,4.975,0.12,7.58c0.008,2.597-0.237,5.267-0.427,7.981
					c-0.164,1.352-0.331,2.718-0.499,4.097c-0.146,1.379-0.451,2.751-0.669,4.143c-1.998,11.089-6.014,22.504-12.034,32.714
					c-5.962,10.241-13.758,19.256-22.108,26.329c-4.158,3.563-8.481,6.617-12.74,9.208c-4.256,2.593-8.424,4.781-12.405,6.473
					c-7.91,3.512-14.888,5.296-19.758,6.361c-2.466,0.428-4.371,0.87-5.704,1.012c-1.323,0.182-2.028,0.279-2.028,0.279
					c-1.853,0.395-3.439,0.954-4.767,1.873c-1.326,0.928-2.422,2.018-3.288,3.307c-1.725,2.579-2.552,5.869-2.337,9.022
					c0.218,3.19,1.514,6.283,4.035,8.457c1.257,1.087,2.819,1.966,4.653,2.388c1.833,0.432,3.963,0.604,6.287,0.124
					c0,0,0.868-0.192,2.496-0.555c1.635-0.323,3.981-1.038,6.981-1.834c5.939-1.801,14.372-4.72,23.694-9.782
					c4.688-2.465,9.549-5.526,14.438-9.075c4.893-3.546,9.788-7.639,14.422-12.293c9.308-9.256,17.652-20.671,23.664-33.204
					c6.082-12.503,9.658-26.083,10.926-38.896c0.127-1.605,0.338-3.189,0.386-4.77c0.065-1.577,0.13-3.139,0.194-4.685
					c-0.02-3.092,0.006-6.106-0.229-9.047c-0.109-2.939-0.518-5.783-0.815-8.529c-0.203-1.369-0.446-2.709-0.664-4.025
					c-0.111-0.657-0.223-1.308-0.332-1.953c-0.142-0.639-0.283-1.272-0.422-1.898c-2.171-10.037-5.38-17.989-7.964-23.324
					c-0.604-1.356-1.233-2.523-1.779-3.537c-0.541-1.016-1.002-1.879-1.375-2.58c-0.373-0.699-0.71-1.207-0.913-1.562
					c-0.211-0.351-0.319-0.532-0.319-0.532c-0.612-1.05-1.107-2.072-1.504-3.076c-0.436-0.979-0.777-1.938-1.031-2.89
					c-0.257-0.95-0.425-1.896-0.534-2.831c-0.136-0.917-0.203-1.832-0.218-2.748c-0.021-3.697,0.639-7.304,1.165-11.165
					c0.273-1.941,0.412-3.85,0.423-5.876c0.004-2.021-0.174-4.11-0.732-6.205c-0.546-2.108-1.379-4.332-2.767-6.49
					c-0.683-1.092-1.477-2.202-2.401-3.317c-0.954-1.075-2.037-2.159-3.263-3.244c0,0-1.18-1.033-3.359-2.658
					c-1.088-0.813-2.382-1.846-3.922-2.934c-1.55-1.07-3.281-2.307-5.208-3.58c-7.716-5.079-18.469-10.936-29.698-15.237
					c-1.405-0.528-2.811-1.055-4.21-1.581c-1.403-0.512-2.82-0.955-4.215-1.426c-2.783-0.968-5.578-1.707-8.258-2.493
					c-2.699-0.708-5.313-1.364-7.801-1.924c-2.5-0.502-4.846-1.053-7.038-1.404c-2.19-0.358-4.189-0.73-5.973-0.967
					c-1.784-0.229-3.339-0.429-4.62-0.594c-1.278-0.178-2.291-0.242-2.978-0.312c-0.688-0.062-1.054-0.096-1.054-0.096
					c-4.946-0.611-5.317,3.639-0.537,4.229c0,0,1.211,0.183,3.318,0.573c2.097,0.458,5.113,0.966,8.668,1.891
					c7.134,1.708,16.5,4.6,25.489,8.441c2.266,0.901,4.458,2.008,6.645,2.997c2.169,1.037,4.262,2.155,6.301,3.191
					c1.999,1.128,3.938,2.197,5.75,3.26c1.787,1.109,3.476,2.157,5.035,3.125c1.521,1.029,2.916,1.972,4.152,2.809
					c1.238,0.828,2.265,1.644,3.134,2.268c0.861,0.638,1.537,1.14,1.999,1.481c0.463,0.338,0.7,0.533,0.701,0.533
					c3.918,2.904,1.282,6.259-2.429,3.407c-0.001,0-0.246-0.169-0.723-0.458c-0.474-0.293-1.169-0.723-2.054-1.27
					c-0.892-0.533-1.941-1.235-3.206-1.934c-1.258-0.705-2.677-1.5-4.226-2.367c-1.576-0.803-3.284-1.672-5.09-2.592
					c-1.825-0.873-3.772-1.739-5.771-2.656c-2.039-0.825-4.124-1.724-6.276-2.536c-2.171-0.765-4.336-1.642-6.569-2.314
					c-8.856-2.924-17.927-4.893-24.764-5.924c-3.409-0.585-6.284-0.815-8.276-1.078c-2.002-0.195-3.149-0.269-3.149-0.269
					c-4.524-0.562-4.896,3.688-0.537,4.23c0,0,1.105,0.17,3.025,0.533c1.909,0.43,4.66,0.896,7.896,1.756
					c6.496,1.583,15.012,4.25,23.149,7.769c2.057,0.821,4.032,1.841,6.012,2.74c1.961,0.946,3.847,1.97,5.688,2.909
					c1.799,1.031,3.547,2.001,5.177,2.966c1.605,1.005,3.123,1.957,4.523,2.834c1.363,0.932,2.613,1.786,3.721,2.542
					c1.111,0.747,2.022,1.486,2.801,2.049c0.771,0.575,1.375,1.027,1.787,1.335c0.415,0.304,0.626,0.479,0.626,0.479
					c3.521,2.618,0.841,5.989-2.499,3.506c0,0-0.219-0.15-0.646-0.406c-0.425-0.26-1.047-0.641-1.839-1.125
					c-0.799-0.472-1.732-1.1-2.867-1.718c-1.128-0.627-2.399-1.334-3.787-2.105c-1.415-0.715-2.948-1.489-4.57-2.309
					c-1.641-0.777-3.395-1.547-5.189-2.369c-1.841-0.732-3.715-1.539-5.656-2.264c-1.962-0.679-3.908-1.472-5.929-2.068
					c-7.998-2.613-16.212-4.374-22.408-5.29c-3.087-0.526-5.696-0.719-7.5-0.958c-1.816-0.171-2.856-0.234-2.856-0.234
					c-4.103-0.512-4.474,3.738-0.537,4.23c0,0,0.999,0.157,2.732,0.493c1.722,0.403,4.208,0.828,7.124,1.625
					c5.857,1.458,13.521,3.906,20.809,7.103c1.845,0.742,3.604,1.675,5.377,2.485c1.751,0.856,3.429,1.785,5.074,2.63
					c1.597,0.934,3.154,1.806,4.603,2.673c1.423,0.903,2.769,1.757,4.01,2.545c1.205,0.834,2.31,1.599,3.288,2.277
					c0.984,0.667,1.78,1.33,2.468,1.831c0.678,0.512,1.211,0.915,1.574,1.189c0.366,0.27,0.551,0.427,0.551,0.427
					c3.089,2.299,0.521,5.566-2.41,3.382c-0.001,0-0.192-0.131-0.573-0.353c-0.376-0.226-0.928-0.556-1.63-0.977
					c-0.71-0.41-1.531-0.959-2.542-1.496c-1.001-0.546-2.13-1.162-3.362-1.834c-1.26-0.623-2.624-1.298-4.067-2.012
					c-1.471-0.657-3.021-1.351-4.625-2.067c-1.647-0.633-3.316-1.341-5.053-1.973c-1.758-0.586-3.49-1.289-5.303-1.801
					c-7.158-2.276-14.528-3.799-20.089-4.577c-2.769-0.456-5.114-0.601-6.732-0.809c-1.63-0.141-2.564-0.188-2.564-0.188
					C96.213,44.089,95.843,48.34,99.358,48.783z"/>
			</g>
		</g>
	</g>
</g>
</svg>
